<?xml version="1.0" encoding="UTF-8"?>
<!DOCTYPE svg PUBLIC "-//W3C//DTD SVG 1.0//EN" "http://www.w3.org/TR/2001/REC-SVG-20010904/DTD/svg10.dtd">
<!-- Creator: CorelDRAW X6 -->
<svg xmlns="http://www.w3.org/2000/svg" xml:space="preserve" width="3.895mm" height="3.895mm" version="1.0" style="shape-rendering:geometricPrecision; text-rendering:geometricPrecision; image-rendering:optimizeQuality; fill-rule:evenodd; clip-rule:evenodd"
viewBox="0 0 390 390"
 xmlns:xlink="http://www.w3.org/1999/xlink">
 <defs>
  <style type="text/css">
   <![CDATA[
    .fil1 {fill:black}
    .fil0 {fill:white}
   ]]>
  </style>
 </defs>
 <g id="Слой_x0020_1">
  <metadata id="CorelCorpID_0Corel-Layer"/>
  <g id="_856758960">
   <path class="fil0" d="M22 392l350 0 0 -384 -350 0 0 384z"/>
   <path class="fil1" d="M33 128l0 82c0,2 0,3 0,4 0,2 0,1 0,4 0,3 0,3 0,4 0,2 0,2 0,4l0 20c0,3 0,4 1,5 0,2 -1,2 -1,5 0,0 0,2 0,2l0 21c0,5 0,10 0,15 0,4 5,6 8,7l56 31c1,1 1,1 2,2 1,1 2,1 3,1l5 3c3,2 5,2 8,4 4,3 11,6 13,7 1,1 1,1 2,2 2,1 2,0 3,1l50 28c5,2 11,7 16,4 3,-2 5,-4 10,-5 5,-1 5,-3 9,-5l15 -9c2,-1 1,-1 3,-2 4,-2 6,-4 10,-6 3,-1 3,-1 6,-3 3,-2 7,-3 9,-5 1,-1 1,-1 3,-2 3,-2 3,-1 9,-5 1,-1 2,-1 3,-2 4,-1 6,-4 9,-5l3 -1c0,0 0,0 0,0l4 -2c1,-1 2,-1 3,-2 5,-3 11,-5 16,-8 2,-1 3,-3 6,-4 6,-3 5,-3 9,-5 3,-2 6,-4 9,-5 1,0 1,0 2,-1 3,-1 11,-6 14,-8 7,-4 4,-16 4,-25l0 -8c0,-3 0,-7 0,-10 0,-3 0,-7 0,-9 0,-3 0,-5 0,-9 0,-3 1,-4 1,-6l-1 -11c0,-3 1,-2 0,-4l0 -67c0,-4 1,-6 1,-8l-1 -29c0,-5 1,-7 -4,-10 -7,-3 -14,-6 -20,-10 -3,-2 -7,-3 -10,-5l-108 -53c-3,-1 -4,-3 -8,-4 -7,-3 -1,-2 -12,-2 -1,0 -3,2 -5,3 -2,1 -4,1 -6,2 -4,3 -7,3 -11,6 -2,2 -13,5 -16,8 -3,2 -2,1 -6,3 -3,1 -2,1 -5,3 -1,1 -1,1 -2,1l-16 8c0,0 -1,0 -1,1 -8,3 -2,3 -10,5 -3,1 -1,0 -3,1 -4,2 -14,6 -17,8 -6,4 -5,2 -11,6 -3,2 -5,1 -8,3 -3,2 -6,2 -9,4 -1,1 -1,1 -2,2 -1,1 -2,1 -3,1 -3,1 -3,1 -5,3 -2,1 -4,1 -6,2l-11 6c-6,4 -7,0 -6,9 0,3 -1,3 0,7 1,4 0,4 0,7z"/>
   <path class="fil0" d="M38 128c0,3 0,-1 0,2 0,1 0,0 0,3 0,1 1,1 1,3l0 4c0,3 0,0 0,2 0,3 0,-1 0,2 0,2 0,1 0,3 0,3 0,-1 0,2 0,2 0,0 0,3l0 10c0,3 0,0 0,2 0,2 0,-1 0,2 0,2 0,1 0,3 0,3 0,-1 0,2l0 24c0,3 0,0 0,2 0,2 1,6 1,8 -1,3 0,1 0,3 0,2 0,0 -1,2 0,3 0,-1 0,2l0 11c0,0 0,0 0,0l0 1c1,2 -1,2 0,5 1,4 0,-2 0,1 0,2 0,0 0,1l0 38c0,2 1,1 0,2 0,2 -1,1 -1,3 1,2 1,-1 1,1 0,2 0,1 0,3 0,3 0,-1 0,2 0,3 0,0 0,2 0,3 0,-1 0,2 0,3 0,0 0,2 0,2 0,-1 0,2 0,3 -2,1 0,4 1,1 2,2 3,3 3,1 5,2 8,4 2,1 1,1 4,2 3,1 4,3 7,4 3,1 1,0 4,2 3,2 3,3 7,4 0,0 0,0 0,0l1 0c2,1 7,5 11,6l2 1c0,0 0,0 0,0l1 1c4,3 6,0 6,2 0,4 -2,-1 0,1l3 1c2,1 4,3 6,4 2,1 4,1 5,3l1 1c0,0 1,1 2,1 2,1 3,1 5,2l4 2c4,2 3,-2 4,2 3,0 3,1 5,3l6 3c2,1 4,3 6,4 2,1 1,1 3,0l0 3c2,-1 1,0 3,-1 1,1 1,1 1,3 3,0 5,5 8,3 2,3 1,2 4,4l13 7c0,0 0,0 0,0 1,0 0,0 1,1l2 1c0,0 0,0 0,0l9 5c3,1 3,2 5,3 1,1 1,1 2,1l1 -4c0,-2 -1,0 0,-4 0,-1 0,-1 0,-2 0,-2 -1,-5 0,-7 0,-1 0,0 0,-1l-1 -2c0,-2 0,-1 1,-2l-2 -2c2,-3 2,-2 0,-5l2 -2c-2,-3 -2,-2 0,-5 -2,-3 -1,-2 -1,-5l0 -4c0,-3 -1,1 0,-2 0,-2 0,0 1,-2 0,-3 0,1 0,-2 0,-3 0,1 0,-2 0,-1 0,0 0,-3 0,-2 1,1 1,-2 0,-2 0,1 -1,-3 0,-5 -1,-4 0,-10l0 -6c0,0 -1,-1 0,-2l0 -4c0,-1 0,-1 0,-1l0 -2c-1,-4 0,-1 0,-3 1,-3 -1,-1 0,-4 1,-2 0,0 1,-1 0,-1 0,0 0,-1 0,-2 -1,1 -1,-2 0,-3 2,0 -1,-4l2 -2c-2,-3 -1,0 -1,-3 0,-2 -1,-1 -1,-3 0,-2 1,0 1,-2 0,-3 -1,0 -1,-2 0,-2 0,-1 0,-3 0,-2 0,0 0,-3 0,-1 1,0 1,-1 0,-3 -1,0 -1,-2 0,-2 0,-1 0,-3 0,-3 0,1 0,-2 0,-3 0,1 0,-2 0,-1 0,0 0,-3 0,-2 1,1 1,-2 0,-3 -1,2 -1,-5l1 -4c0,-3 -1,1 -1,-6 0,-4 1,-1 1,-4 0,-2 0,1 -1,-2 0,-3 0,0 0,-2l0 -5c0,0 0,0 0,0 0,0 0,-2 0,-2 0,-3 1,0 1,-4 0,0 -1,-5 -1,-5 0,-3 1,-1 1,-4 -2,-1 -2,0 -2,-3 2,0 1,0 2,-1 -2,-3 -1,-3 -1,-6 0,-1 0,-2 -1,-3l-4 -2c-2,-1 -2,0 -4,-1 -10,-7 -5,-2 -9,-4l-3 -3c-4,-3 -9,-5 -14,-6 -2,0 -4,-3 -7,-4 -4,-1 -2,1 -5,-2l-3 -2c0,1 -1,3 -2,2 -1,-1 0,-1 1,-3 -6,0 -6,-5 -10,-2 -1,-2 0,-1 0,-3 -3,0 -3,0 -5,-2 0,0 0,0 0,0 -2,-1 1,0 -2,-1 -3,-1 3,0 -1,0l-8 -5c-4,-1 1,1 -2,0 -2,-1 1,0 0,0 -1,-1 -2,-1 -4,-2 -1,-1 -1,-1 -3,-2 -2,1 -1,0 -3,1 -1,-1 0,-1 -1,-3 -3,0 -4,-2 -7,-3 -1,0 0,0 -1,-1 0,0 0,0 0,0l-2 -1c-5,-3 -6,-2 -8,-4l-3 -2c0,0 0,0 0,0 0,0 0,0 0,0 0,0 0,0 -1,-1l-5 -3c-3,-2 -1,0 -3,-1 0,0 0,0 0,0l-4 -2c-4,-3 -3,-3 -6,-1 -1,-2 0,-1 -1,-2l-2 -1c-4,-3 -4,-2 -7,-3 -2,-1 -3,-3 -8,-4l-3 -1c-2,-1 1,0 -2,-1 0,3 0,1 0,4l0 9c0,2 0,-1 0,2z"/>
   <path class="fil0" d="M337 119c0,3 0,0 -7,4l-11 5c-2,1 -3,1 -4,2l-12 6c-1,0 -1,0 -1,1l-3 1c-1,0 -1,0 -2,1 -3,1 -4,2 -7,4l-6 3c-1,0 -3,1 -4,2 0,0 0,0 0,0 0,0 0,0 0,0 -4,3 0,-2 -9,4 -2,2 -1,1 -4,1l-28 14c0,0 0,0 0,0 0,0 0,0 0,0l-6 2 0 2c-4,0 -6,2 -9,4 -2,1 -3,1 -5,2l-14 7c-1,0 -1,0 -2,1 -4,2 -3,3 -3,7 0,3 0,0 0,2 0,2 0,-1 0,2 0,2 0,1 0,3 0,3 0,-1 0,2 0,3 -1,-1 0,2l0 4c0,3 0,-1 0,2 0,3 0,0 0,2 0,3 0,-1 0,2 0,3 0,0 0,2 0,3 0,-1 0,2 0,3 0,0 0,2 0,3 0,-1 0,2 0,3 0,-1 0,2l1 9c-1,12 0,10 0,13 -1,8 0,9 0,19 2,0 1,0 3,1 -4,6 -2,1 -3,9 -1,5 1,6 1,7 0,2 -1,1 -1,3 0,0 0,1 0,1 0,3 0,0 0,3 0,0 0,1 0,1 0,0 0,0 0,0l0 2c0,2 0,3 1,4 0,1 1,1 1,2 -3,1 0,0 -3,-1 1,4 0,6 0,10 0,3 0,-1 0,2l0 22c1,4 0,2 0,5 0,0 0,0 0,0l0 8c0,1 0,3 0,3 0,2 0,2 0,4l1 12c0,3 0,-1 0,2 0,3 1,7 0,10l6 -3c1,-1 -1,1 1,-2 3,2 2,1 5,-1l4 -2c0,0 0,0 0,0l12 -6c3,-1 4,-4 8,-4l0 -2c5,0 1,0 8,-3 0,0 0,0 0,0 0,0 0,0 0,0l2 -1c5,-2 6,-5 10,-4l-1 -3c5,1 6,-4 11,-4l2 0c2,-1 3,-3 6,-4l7 -3c1,-1 2,-1 3,-2l13 -7c2,0 3,-2 4,-3 1,0 1,-1 2,-1l1 -1c1,-1 4,-1 9,-5 4,-3 6,-1 10,-5 3,-3 4,-2 7,-3l15 -9c3,-2 0,-1 3,-1 1,0 0,0 2,-1 2,-1 0,0 1,-1 1,-1 1,-1 3,-2 0,0 -1,-1 -1,-1 -1,-2 0,-2 0,-4 0,-1 0,0 0,-3 0,-3 0,1 1,-1 1,-1 0,0 0,-1 0,-2 0,-1 0,-2 0,-2 1,-1 0,-3 -1,-2 -1,1 -1,-1l0 -4c0,-2 0,-2 0,-3l0 -2c0,-2 0,-1 1,-3 0,-2 0,1 0,-2l0 -19c0,-2 1,1 1,-2 0,-2 -1,0 0,-3 0,-3 1,0 0,-2 0,-3 -1,1 0,-2 1,-4 2,-4 0,-8 -1,-2 0,-1 0,-2 0,-2 0,-1 0,-3 0,-2 0,0 0,-3 0,-1 -1,1 0,-4l0 -4c0,-4 0,0 0,-3 0,-1 0,-1 0,-2 0,-3 -1,1 0,-3l0 -4c0,-2 0,1 0,-2 0,-3 0,0 0,-2 0,-2 1,0 0,-3 0,0 0,-1 0,-1 0,-2 0,-1 0,-2 0,0 0,-1 0,-1 0,-3 -1,-1 0,-3l0 -2c0,-2 -1,1 -1,-2 0,-2 1,-1 1,-3 0,-3 0,-1 0,-4 0,-3 -1,0 -1,-3 0,-2 1,0 1,-2 0,-2 -1,-5 0,-8l0 -1c0,-2 -1,1 -1,-2 0,-3 0,0 1,-2l0 -1c0,0 0,0 0,0 0,-2 0,1 0,-2l0 -4c0,-2 0,0 0,-2 0,-1 0,-1 0,-2 0,-2 -1,1 -1,-2 0,-2 1,0 1,-2l0 -5c0,-3 1,-1 1,-3 0,-3 0,0 -1,-3 0,-3 1,0 0,-3 0,-3 -1,1 0,-2l0 -6c-1,-6 3,-6 -5,-3 -1,1 -2,1 -3,1 -2,1 -3,2 -6,2z"/>
   <path class="fil0" d="M168 50c-4,-1 -2,-2 -5,0 -4,3 -2,2 -5,2 -2,0 -4,2 -5,3l-7 2c0,0 -1,0 -1,0l-1 1c-2,1 -3,0 -5,2 -1,1 1,0 -1,1 -2,1 0,0 -2,1 -2,0 -1,-1 -5,2 -3,3 -3,1 -6,2 -2,1 -3,3 -5,4 -3,1 -4,-1 -3,3 -1,0 -2,0 -3,0 -3,0 -2,1 -4,2l-3 1c-3,1 -6,4 -9,5l-18 9c-2,1 -4,3 -6,3l-15 7c-3,2 -14,5 -12,7 1,2 1,1 2,1 0,0 0,0 0,0l1 1c0,0 0,0 0,0l10 5c2,1 3,2 5,3 3,1 2,0 5,2 3,2 2,1 6,2 3,1 2,2 4,3 4,2 4,-2 4,2 3,0 2,1 5,2 4,2 4,-1 4,2 4,0 2,0 4,1 2,1 4,1 6,3 1,1 1,1 2,1l11 5c2,1 3,1 4,1 1,0 3,3 4,3 4,0 3,-2 3,1 3,0 2,1 5,3 2,2 2,1 4,0 1,3 -1,0 1,2l3 1c4,2 3,3 5,1 1,1 1,1 1,3 3,0 4,2 7,2 2,0 4,2 6,4 3,2 7,3 10,5 3,2 0,1 4,0l0 2c3,0 1,0 3,1l5 2c2,0 3,2 5,3 1,0 1,0 1,1 0,0 0,0 0,0 0,0 0,0 0,0 3,2 7,3 10,1 3,-2 0,-1 4,-1 3,-1 4,-2 6,-4 1,-1 0,0 2,-1l6 -3c4,-3 1,-1 4,-1 2,0 4,-3 5,-4 3,-2 2,-1 4,-1 0,0 1,-1 2,-1 1,-1 1,-1 2,-1l5 -2c1,-1 3,-2 4,-3 2,-1 3,-1 5,-2 1,-1 2,-2 4,-2l8 -4c3,-2 2,0 5,-2 3,-1 3,-3 7,-4 3,-1 4,-3 8,-4 3,-1 5,-3 8,-4 2,-1 2,0 5,-2 2,-2 2,-2 4,-2 2,0 2,0 4,-2l4 -3c3,-1 3,0 7,-3 3,-3 2,0 7,-3 0,0 0,0 0,0l2 -1c3,-2 2,1 6,-2l4 -3c2,-1 1,0 4,-1 2,-1 2,-2 4,-2 3,-1 2,0 5,-2 2,-1 3,-1 3,-3 -4,0 -3,-1 -5,-2l-9 -4c-1,-1 0,0 -1,-1 -2,-1 -3,-2 -5,-1 -1,-3 0,-2 -3,-3 -2,-1 -3,-2 -6,-2l0 -2 -4 -1c0,0 -1,0 -1,0l-8 -4c0,0 0,0 0,0 0,0 0,0 0,0l-4 -2c-2,-1 -4,-1 -6,-3 -3,-2 -3,-1 -7,-3 -2,-1 -3,-2 -6,-2 0,0 -2,-1 -2,-1 -2,-1 -1,-1 -4,-2l-12 -6c-1,-1 0,0 -2,-1l-5 -3c-1,0 0,0 -1,-1l-21 -10c-3,-2 -9,-5 -12,-6l-1 -1c0,0 0,0 0,0l-2 -1c0,0 0,0 0,0 -2,-1 -4,-3 -6,-3 -3,0 -2,0 -5,-2l-2 -1c-1,-1 0,0 -2,-1 -2,-1 -3,-2 -6,-2 -1,1 -2,1 -3,2 -2,1 -2,1 -3,2l-4 1c-1,1 -2,1 -4,2l-3 2c-5,2 -7,2 -10,7z"/>
  </g>
 </g>
</svg>
